<svg width="64" height="64" viewBox="0 0 64 64" fill="none" xmlns="http://www.w3.org/2000/svg">
  <path d="M15 10C25 10 30 25 40 25C50 25 55 10 65 10" stroke="#1e40af" stroke-width="5" stroke-linecap="round"/>
  <path d="M-5 25C5 25 10 40 20 40C30 40 35 25 45 25" stroke="#1e40af" stroke-width="5" stroke-linecap="round"/>
  <path d="M10 15C10 25 25 30 25 40C25 50 10 55 10 65" stroke="#84cc16" stroke-width="5" stroke-linecap="round"/>
  <path d="M25 -5C25 5 40 10 40 20C40 30 25 35 25 45" stroke="#84cc16" stroke-width="5" stroke-linecap="round"/>
  <path d="M40 15C40 25 55 30 55 40C55 50 40 55 40 65" stroke="#1e40af" stroke-width="5" stroke-linecap="round"/>
</svg>
